<?xml version="1.0" standalone="no"?>
<!DOCTYPE svg PUBLIC "-//W3C//DTD SVG 20010904//EN"
 "http://www.w3.org/TR/2001/REC-SVG-20010904/DTD/svg10.dtd">
<svg version="1.0" xmlns="http://www.w3.org/2000/svg"
 width="560.000000pt" height="196.000000pt" viewBox="0 0 560.000000 196.000000"
 preserveAspectRatio="xMidYMid meet">

<g transform="translate(0.000000,196.000000) scale(0.100000,-0.100000)"
fill="#000000" stroke="none">
<path d="M1808 965 l2 -485 60 0 60 0 0 195 c0 165 -2 197 -15 201 -37 15 -8
24 75 24 l90 0 0 70 0 70 -75 0 -75 0 0 119 c0 69 -4 122 -10 126 -29 18 1 25
110 25 l120 0 0 54 c0 91 10 86 -179 86 l-166 0 3 -485z"/>
<path d="M2194 1434 c3 -9 6 -225 6 -480 l0 -464 60 0 60 0 0 185 c0 156 -2
187 -15 191 -31 12 -16 34 24 34 l39 0 16 -62 c10 -35 34 -126 54 -203 l37
-140 59 -3 c53 -3 58 -1 52 15 -4 10 -12 41 -17 68 -5 28 -25 109 -44 181 -19
73 -35 134 -35 138 0 3 12 6 26 6 15 0 38 12 56 31 l31 30 -7 212 c-8 227 -13
249 -62 267 -14 6 -97 10 -186 10 -142 0 -159 -2 -154 -16z m276 -259 l0 -136
-72 3 -73 3 -3 123 c-1 70 -7 122 -12 122 -6 0 -10 5 -10 10 0 6 35 10 85 10
l85 0 0 -135z"/>
<path d="M2723 1439 c-63 -18 -63 -13 -65 -475 -3 -414 -3 -420 18 -442 30
-32 75 -42 196 -42 l107 0 6 55 c11 85 11 85 -110 85 l-105 0 0 324 c0 206 -4
327 -10 331 -5 3 -10 13 -10 20 0 11 24 15 118 17 l117 3 0 65 0 65 -115 2
c-63 1 -130 -3 -147 -8z"/>
<path d="M912 1348 c-7 -7 -12 -27 -12 -45 l0 -32 -48 6 c-59 7 -131 -21 -157
-61 -43 -65 -37 -166 15 -249 17 -27 30 -58 30 -71 0 -28 -32 -58 -90 -83 -49
-21 -106 -79 -116 -117 -3 -12 -4 -40 -2 -62 l3 -39 295 0 c333 0 309 -7 295
82 -8 58 -53 108 -124 139 -63 28 -81 46 -81 83 1 45 22 61 79 61 48 0 51 -2
51 -25 0 -21 -5 -25 -27 -25 -35 0 -58 -14 -49 -29 10 -15 79 -14 94 1 7 7 12
27 12 45 l0 33 94 0 c73 0 98 4 110 16 24 23 24 345 0 368 -13 13 -44 16 -188
16 -120 0 -176 -4 -184 -12z m353 -188 l0 -165 -165 0 -165 0 -3 155 c-1 85 0
160 3 167 3 11 40 13 167 11 l163 -3 0 -165z m-378 72 c8 -5 12 -52 14 -141 2
-129 1 -135 -20 -153 -77 -62 -180 38 -181 176 0 53 3 61 34 92 30 30 40 34
88 34 29 0 58 -4 65 -8z m2 -364 c12 -33 41 -56 108 -87 69 -33 93 -64 93
-121 l0 -40 -262 2 -263 3 -3 30 c-5 49 33 94 113 135 52 26 74 43 85 67 14
31 18 33 68 33 45 0 54 -3 61 -22z"/>
<path d="M1048 1290 c-26 -16 -31 -62 -12 -110 13 -33 15 -45 5 -48 -6 -2 -25
-15 -42 -29 -24 -20 -29 -32 -27 -57 l3 -31 120 0 120 0 3 33 c3 35 -19 72
-43 72 -25 0 -34 24 -20 50 21 36 19 94 -3 113 -20 19 -77 22 -104 7z m90 -56
c2 -19 -4 -40 -17 -55 -19 -23 -19 -24 -40 -5 -21 19 -29 74 -14 90 4 4 21 6
38 4 25 -3 30 -8 33 -34z m-10 -120 c9 -8 28 -23 42 -34 14 -10 22 -21 19 -25
-4 -3 -49 -4 -100 -3 -76 2 -91 5 -79 15 8 7 29 24 45 37 35 30 49 32 73 10z"/>
<path d="M603 1310 c-19 -8 -23 -17 -23 -55 0 -33 4 -45 15 -45 10 0 15 11 15
35 0 33 2 35 36 35 28 0 35 3 32 18 -4 20 -42 26 -75 12z"/>
<path d="M3830 925 l0 -386 25 -24 c23 -24 30 -25 140 -25 l115 0 0 55 0 54
-87 3 -88 3 -3 165 c-2 141 -5 167 -19 178 -15 10 -12 12 19 12 19 0 56 3 82
6 l46 7 0 53 0 54 -65 0 -65 0 0 115 0 115 -50 0 -50 0 0 -385z"/>
<path d="M4952 933 c3 -246 8 -387 15 -404 16 -37 59 -49 174 -49 l99 0 0 60
0 60 -90 0 -90 0 0 164 c0 159 -1 165 -22 180 -22 16 -21 16 22 16 25 0 62 3
83 6 l37 7 0 53 0 54 -60 0 -60 0 0 115 0 115 -56 0 -56 0 4 -377z"/>
<path d="M3051 1064 l-31 -26 0 -236 c0 -262 3 -276 60 -304 48 -24 172 -24
220 0 57 28 60 42 60 300 l0 234 -29 29 c-29 29 -31 29 -139 29 -104 0 -112
-1 -141 -26z m207 -281 l2 -183 -70 0 -70 0 0 170 c0 142 -2 172 -15 176 -38
15 -8 25 68 22 l82 -3 3 -182z"/>
<path d="M3422 968 c3 -68 4 -200 1 -294 -4 -116 -3 -173 5 -178 6 -3 31 -9
56 -12 l46 -7 0 232 c0 197 -2 232 -15 237 -36 14 -9 24 65 24 l80 0 2 -62 c1
-35 0 -145 -2 -245 l-3 -183 56 0 56 0 -2 280 c-2 353 15 324 -200 328 l-152
3 7 -123z"/>
<path d="M4548 791 l3 -301 49 0 50 0 0 224 c0 139 -4 227 -10 231 -28 17 -4
26 68 23 l77 -3 3 -237 2 -238 50 0 50 0 0 269 0 270 -24 28 -24 28 -149 3
-148 3 3 -300z"/>
<path d="M4181 1054 l-31 -26 0 -235 c0 -220 1 -237 20 -263 29 -40 77 -53
178 -48 81 4 87 6 114 36 15 18 28 43 28 57 l0 25 -115 0 -115 0 0 55 0 55 90
0 c83 0 93 2 115 25 24 23 25 29 25 159 l0 134 -31 26 c-29 24 -37 26 -139 26
-102 0 -110 -2 -139 -26z m207 -156 l3 -68 -66 0 -65 0 0 49 c0 31 -5 53 -15
61 -29 24 -14 31 63 28 l77 -3 3 -67z"/>
<path d="M584 967 c-3 -8 -4 -32 -2 -53 l3 -39 48 0 c56 0 68 19 15 23 -36 3
-38 5 -38 37 0 36 -16 56 -26 32z"/>
</g>
</svg>
